<?xml version="1.0" standalone="no"?>
<!DOCTYPE svg PUBLIC "-//W3C//DTD SVG 20010904//EN"
 "http://www.w3.org/TR/2001/REC-SVG-20010904/DTD/svg10.dtd">
<svg version="1.0" xmlns="http://www.w3.org/2000/svg"
 width="771.000000pt" height="771.000000pt" viewBox="0 0 771.000000 771.000000"
 preserveAspectRatio="xMidYMid meet">
<metadata>
Created by potrace 1.14, written by Peter Selinger 2001-2017
</metadata>
<g transform="translate(0.000000,771.000000) scale(0.100000,-0.100000)"
fill="#000000" stroke="none">
<path d="M190 5882 c0 -1058 3 -1381 12 -1390 9 -9 9 -15 0 -24 -17 -17 -17
-749 0 -815 11 -37 11 -47 0 -50 -8 -3 -12 -33 -12 -104 0 -99 8 -120 31 -76
6 12 27 35 46 51 20 17 32 34 29 43 -8 20 22 61 47 65 17 2 25 14 34 52 20 83
38 84 116 11 58 -55 70 -57 61 -10 -5 27 -2 41 12 56 15 17 16 24 6 39 -7 11
-12 33 -12 48 0 39 -8 44 -41 27 -28 -15 -133 -20 -163 -9 -41 16 8 64 64 64
23 0 55 7 72 16 38 20 83 12 120 -21 23 -20 28 -34 31 -80 4 -71 31 -100 99
-109 45 -5 48 -4 54 20 10 37 -10 70 -54 93 -58 30 -60 48 -12 92 54 49 53 81
-3 90 -49 8 -52 12 -34 46 9 15 24 45 33 66 10 23 29 44 48 54 17 8 47 31 67
50 48 46 82 43 89 -7 5 -34 6 -35 50 -35 38 0 45 3 48 22 4 30 -34 63 -74 63
-45 0 -57 19 -47 71 8 40 11 44 48 52 34 7 49 4 97 -19 79 -37 90 -31 82 49
-7 73 4 90 58 85 31 -3 33 -5 36 -45 3 -37 10 -48 53 -84 27 -23 49 -46 49
-50 0 -4 -12 -14 -27 -21 -53 -25 -31 -103 26 -96 21 2 27 9 29 36 2 24 8 32
22 32 10 0 22 -4 25 -10 3 -5 15 -10 26 -10 20 0 20 0 -1 30 -26 37 -20 65 20
85 16 8 34 24 40 36 9 16 14 18 26 8 10 -8 11 -15 4 -24 -6 -8 -10 -40 -8 -72
3 -55 5 -58 30 -61 14 -2 32 -10 38 -18 13 -15 60 -20 60 -6 0 5 -9 17 -20 27
-18 17 -20 26 -14 90 8 93 -1 110 -63 120 -60 9 -62 10 -56 35 7 27 33 25 77
-5 21 -14 55 -34 76 -45 22 -11 48 -33 57 -48 10 -15 29 -37 43 -49 l25 -23
-22 0 c-13 0 -23 -4 -23 -9 0 -15 18 -23 25 -11 3 5 22 10 41 10 42 0 48 13
34 71 -7 24 -16 73 -21 109 -10 66 -18 92 -49 165 -23 53 -40 126 -40 174 0
21 -7 56 -16 77 -14 33 -16 80 -16 294 1 333 10 428 47 500 61 120 157 254
233 325 30 28 40 44 33 54 -11 17 -47 -1 -56 -29 -8 -25 -31 -26 -44 -2 -7 13
-6 27 4 46 37 71 -44 73 -137 2 -18 -13 -46 -26 -63 -28 -28 -3 -30 -5 -27
-40 3 -42 4 -42 -32 -28 -16 6 -26 17 -26 30 0 37 264 287 359 340 48 26 67
43 72 64 4 15 19 42 32 59 23 31 41 74 52 130 8 41 59 69 112 62 57 -8 113 9
148 45 32 34 121 64 160 54 15 -4 51 2 88 14 64 21 149 42 168 42 8 0 7 -6 -2
-16 -14 -17 -109 -64 -129 -64 -14 0 -60 -46 -60 -61 0 -14 42 -8 120 15 30 9
71 21 90 26 19 4 49 13 65 19 168 61 251 80 280 64 13 -8 8 -12 -25 -22 -23
-7 -89 -37 -148 -67 -58 -30 -118 -54 -133 -54 -35 0 -159 -50 -212 -86 -23
-16 -71 -51 -107 -79 -36 -29 -76 -57 -89 -64 -23 -13 -23 -12 -17 13 5 22 3
26 -14 26 -37 0 -73 -26 -160 -117 -156 -161 -220 -247 -220 -296 0 -8 12 -19
26 -26 14 -6 24 -16 22 -22 -5 -16 -84 -112 -186 -226 -51 -58 -97 -115 -102
-128 -10 -26 -1 -255 10 -255 13 0 19 53 13 116 -7 72 9 93 39 53 48 -64 46
-64 105 -4 29 30 58 55 63 55 18 0 10 -47 -15 -91 -14 -24 -25 -51 -25 -59 0
-18 -58 -159 -73 -178 -5 -7 -22 -48 -36 -91 -24 -71 -25 -82 -13 -112 8 -19
14 -48 14 -66 0 -36 -36 -145 -57 -177 -24 -33 4 -199 56 -337 11 -30 25 -68
30 -86 5 -18 14 -35 19 -38 27 -17 -1 -55 -152 -207 -246 -246 -251 -250 -307
-248 -25 2 -54 2 -63 1 -17 -1 -58 -67 -58 -94 0 -7 -18 -31 -41 -52 -39 -39
-40 -41 -34 -89 8 -60 19 -83 45 -91 24 -8 25 -18 4 -40 -12 -12 -27 -14 -63
-9 -54 7 -141 -20 -221 -67 -25 -15 -88 -52 -140 -82 -129 -76 -164 -105 -189
-155 -43 -87 -22 -98 56 -29 70 63 118 86 136 67 9 -9 7 -16 -13 -28 -83 -55
-160 -150 -160 -198 0 -14 -15 -47 -34 -73 -18 -25 -49 -77 -67 -116 -21 -43
-56 -92 -91 -128 -111 -112 -148 -162 -148 -197 0 -46 -61 -120 -99 -120 -15
0 -36 -7 -47 -15 -10 -8 -27 -15 -36 -15 -17 0 -18 -64 -18 -1195 l0 -1195
1380 0 1380 0 0 98 c0 142 -18 325 -41 421 -19 78 -21 121 -22 540 -2 405 0
462 15 511 45 145 65 360 48 510 -12 97 -18 115 -76 235 -57 118 -162 275
-228 340 -12 11 -66 72 -122 135 -91 104 -136 162 -257 330 -22 30 -55 71 -73
90 -39 42 -107 136 -186 258 -76 116 -174 231 -244 284 -76 57 -126 138 -85
138 11 0 201 -155 224 -183 11 -12 33 -38 50 -57 38 -42 123 -157 196 -265 78
-114 212 -284 442 -559 105 -127 289 -374 301 -405 5 -14 32 -73 61 -131 69
-142 91 -283 67 -419 -5 -31 -17 -101 -26 -156 -8 -55 -23 -127 -32 -160 -15
-52 -17 -112 -15 -465 3 -387 8 -486 32 -575 22 -83 31 -165 32 -315 1 -85 3
-165 6 -178 l5 -22 2229 0 2229 0 0 49 c0 46 18 80 33 64 12 -11 8 227 -4 249
-6 11 -19 61 -30 111 -22 111 -67 205 -122 258 -23 21 -65 60 -92 87 -52 49
-104 151 -124 244 -5 24 -17 75 -25 113 -9 39 -16 95 -16 125 0 78 -44 208
-81 240 -17 14 -29 34 -28 45 6 62 -1 82 -30 88 -18 4 -58 35 -107 84 -115
114 -163 150 -239 178 -37 13 -78 33 -90 45 -12 11 -45 27 -75 36 -63 19 -158
70 -182 99 -10 11 -17 34 -18 52 0 17 -6 44 -14 60 -8 15 -23 55 -33 88 -10
34 -46 103 -84 160 -36 55 -74 116 -84 135 -28 55 -105 159 -126 171 -14 7
-19 21 -19 48 0 32 -6 42 -40 70 -22 17 -40 37 -40 43 0 6 -16 31 -37 55 -20
25 -49 77 -65 116 l-28 70 27 40 c75 105 101 175 72 192 -22 14 -60 -6 -76
-40 -27 -56 -51 -54 -119 12 -16 15 -67 57 -112 92 -45 35 -82 68 -82 73 0 13
-237 248 -250 248 -5 0 -26 16 -47 35 -20 19 -49 37 -65 40 -19 5 -33 17 -42
38 -11 27 -23 35 -71 50 -72 22 -84 14 -65 -42 7 -22 19 -42 26 -45 8 -3 14
-12 14 -20 0 -11 -13 -14 -54 -13 -63 1 -81 -11 -89 -59 -9 -55 4 -76 54 -88
50 -13 62 -40 35 -82 -23 -34 -32 -30 -57 19 -12 23 -27 46 -33 50 -19 13
-100 -4 -138 -30 -29 -20 -46 -24 -85 -22 -39 3 -54 -1 -81 -21 -29 -22 -33
-29 -27 -57 9 -48 -10 -42 -69 19 -28 29 -65 60 -83 70 -30 16 -31 17 -21 55
6 24 6 53 1 74 -9 32 -12 34 -67 43 -52 8 -59 7 -82 -15 l-24 -23 -43 41 c-23
22 -55 51 -70 64 -15 13 -43 51 -62 85 -19 33 -41 67 -50 74 -8 7 -15 21 -15
31 0 11 -4 27 -10 37 -5 9 -14 29 -20 45 -10 29 -34 35 -59 13 -9 -7 -42 -16
-74 -20 l-59 -6 -44 45 c-25 25 -54 45 -65 45 -12 0 -30 18 -51 51 -27 45 -34
50 -57 45 -96 -20 -86 -23 -150 41 -55 55 -62 68 -91 159 -40 126 -42 128 -75
132 -20 3 -36 -5 -59 -27 -17 -16 -43 -34 -58 -40 -43 -16 -33 -26 25 -29 47
-2 55 -6 89 -43 44 -49 54 -75 37 -95 -16 -19 -97 -10 -159 19 -170 77 -328
158 -344 175 -10 12 -31 24 -47 27 -38 8 -66 43 -117 146 l-42 84 -3 140 c-2
137 -1 141 25 181 31 48 81 92 126 111 37 15 120 9 162 -12 14 -7 41 -20 60
-28 105 -46 129 -59 176 -89 187 -120 219 -151 275 -265 34 -67 42 -96 49
-169 7 -79 10 -89 35 -107 25 -19 26 -23 20 -77 l-7 -56 39 4 c48 5 69 24 78
68 6 33 8 35 42 32 31 -3 37 -8 47 -38 9 -27 17 -36 39 -38 24 -3 27 0 27 27
0 18 -9 40 -20 51 -11 11 -20 24 -20 30 0 5 -15 27 -34 47 -39 44 -76 124 -76
164 0 36 24 59 61 59 31 0 35 10 19 41 -14 25 -36 24 -43 -1 -8 -32 -22 -24
-76 45 -30 38 -59 65 -70 65 -20 0 -51 30 -51 49 0 16 51 6 62 -12 21 -34 27
-39 37 -33 14 9 15 36 1 36 -5 0 -27 15 -47 34 -50 44 -68 53 -128 61 -69 9
-85 15 -85 28 0 7 32 46 71 87 84 88 119 138 143 202 17 46 62 95 254 276 36
34 50 55 46 66 -7 19 -48 12 -79 -14 -11 -9 -43 -31 -70 -48 -28 -17 -61 -43
-73 -56 -11 -14 -39 -34 -60 -45 -21 -11 -46 -30 -55 -43 -34 -51 -77 -88
-100 -88 -16 0 -37 -14 -61 -40 -19 -22 -60 -53 -90 -70 -30 -17 -60 -38 -66
-45 -40 -48 -40 25 0 75 18 23 30 50 30 68 0 27 5 32 45 48 53 20 58 41 18 78
l-27 26 -16 -25 c-17 -28 -32 -32 -50 -10 -19 22 -7 49 26 60 31 11 74 40 111
76 18 19 24 20 37 9 9 -7 16 -19 16 -27 0 -21 24 -10 28 13 2 10 10 33 18 51
8 17 14 36 14 43 0 6 6 10 13 8 6 -3 13 -23 15 -46 2 -33 7 -42 21 -42 34 0
46 29 47 116 1 68 5 87 23 109 21 27 28 79 13 101 -7 11 -65 44 -76 44 -11 0
-66 -60 -66 -71 0 -7 7 -21 17 -31 15 -17 15 -18 -5 -18 -11 0 -24 5 -27 10
-8 13 -52 13 -60 0 -4 -6 -1 -17 5 -25 18 -21 -2 -19 -43 5 -29 18 -36 18 -53
6 -16 -13 -17 -18 -6 -35 16 -27 15 -31 -3 -31 -8 0 -15 5 -15 10 0 15 -26 12
-39 -4 -6 -7 -25 -16 -42 -20 -27 -5 -31 -9 -26 -32 3 -18 0 -27 -12 -31 -9
-2 -28 -11 -43 -19 -14 -8 -33 -14 -42 -14 -9 0 -22 -11 -28 -25 -12 -26 -32
-31 -57 -16 -12 8 -8 15 18 40 18 17 39 31 45 31 7 0 25 14 41 30 16 17 34 30
41 30 7 0 50 36 96 80 45 44 87 80 91 80 5 0 17 -10 26 -22 19 -23 41 -17 41
11 0 31 123 137 202 174 98 46 115 52 328 110 224 62 346 87 427 87 106 0 272
-39 338 -80 17 -10 58 -35 93 -54 35 -20 73 -45 84 -56 12 -11 31 -23 42 -26
24 -8 196 -180 196 -197 0 -6 6 -18 14 -26 13 -15 25 -35 83 -141 10 -19 41
-69 68 -110 72 -110 86 -139 83 -169 -3 -23 -6 -26 -40 -23 -44 4 -58 -15 -58
-82 0 -43 3 -47 58 -90 31 -24 91 -79 132 -122 41 -42 105 -101 142 -130 54
-43 72 -66 98 -121 l32 -67 -31 -28 c-39 -35 -55 -36 -48 -3 3 16 -2 34 -13
48 -15 18 -20 19 -34 8 -9 -8 -26 -11 -41 -7 -55 14 -244 -37 -307 -83 -41
-29 -47 -31 -106 -25 -38 4 -62 12 -62 19 0 6 13 36 30 66 32 59 38 89 16 89
-25 0 -54 -34 -86 -98 -35 -70 -52 -121 -44 -133 2 -5 16 -3 30 3 20 10 31 8
64 -11 51 -28 133 -44 241 -47 81 -2 90 -4 180 -51 52 -27 124 -62 162 -78
104 -45 106 -49 55 -131 l-43 -69 1 -95 c1 -115 8 -132 106 -235 105 -111 108
-118 108 -234 0 -92 2 -102 26 -130 32 -38 165 -127 264 -176 103 -51 213
-114 266 -152 44 -33 84 -43 84 -21 0 6 8 20 17 30 16 18 15 21 -6 65 -17 34
-25 43 -34 34 -20 -20 -44 -12 -50 17 -3 15 -9 39 -13 54 -6 25 -3 29 39 47
53 23 68 53 41 82 -23 26 -44 24 -90 -7 -44 -30 -59 -26 -83 23 -10 19 -27 35
-46 40 -22 7 -36 21 -53 57 -13 27 -34 58 -47 68 -14 11 -33 38 -43 61 -11 23
-47 77 -81 121 -60 78 -70 96 -51 96 15 0 80 -67 80 -83 0 -19 49 -41 64 -28
6 5 27 11 46 13 32 3 35 1 32 -22 -2 -14 -8 -35 -15 -48 -9 -20 -8 -30 8 -60
16 -30 26 -37 50 -37 22 0 33 7 43 27 15 33 6 75 -19 89 -11 5 -19 18 -19 28
0 10 -14 30 -30 45 -54 48 -62 106 -14 106 26 0 44 -31 44 -75 0 -25 47 -85
67 -85 6 0 15 9 18 20 9 28 43 25 55 -5 8 -20 16 -25 45 -25 24 0 35 5 35 15
0 27 40 16 73 -19 18 -19 53 -47 79 -63 25 -16 58 -43 71 -59 14 -16 48 -40
75 -53 28 -13 55 -34 61 -47 6 -13 36 -36 71 -54 33 -17 60 -34 60 -39 0 -20
80 -61 117 -60 39 2 94 -25 183 -90 24 -17 47 -31 52 -31 8 0 36 -17 139 -87
30 -21 76 -49 100 -62 64 -34 127 -92 135 -123 8 -38 -15 -37 -58 1 -46 40
-68 44 -105 21 -35 -21 -52 -63 -36 -89 5 -9 29 -26 54 -38 l44 -23 -3 -65
c-4 -65 -4 -66 -30 -63 -25 3 -27 7 -30 50 -3 43 -6 49 -30 54 -59 13 -77 22
-76 38 1 9 -4 16 -12 16 -8 0 -14 6 -14 14 0 7 -10 25 -21 40 l-21 27 26 28
c32 33 32 48 2 85 -29 35 -60 29 -75 -16 -10 -27 -8 -35 10 -54 17 -19 21 -31
16 -64 -5 -36 -2 -41 21 -53 26 -12 27 -15 24 -84 -4 -79 -4 -80 67 -98 l46
-11 0 -63 c0 -62 1 -64 43 -102 l43 -38 -22 -30 c-21 -29 -54 -45 -71 -35 -4
3 -8 23 -8 44 0 31 -5 43 -26 56 -23 16 -28 16 -60 1 -29 -14 -34 -22 -34 -51
0 -22 -6 -36 -17 -40 -24 -10 -41 13 -48 65 l-7 46 42 7 c84 13 98 39 59 103
-22 35 -54 54 -77 45 -16 -6 -43 -57 -52 -97 -5 -23 -11 -29 -27 -28 -14 2
-29 -10 -47 -36 -17 -25 -38 -41 -56 -45 -16 -3 -34 -15 -40 -26 -9 -17 -6
-25 20 -51 36 -37 75 -34 90 6 10 27 37 32 62 13 9 -7 18 -34 21 -61 4 -39 12
-56 51 -97 25 -27 46 -54 46 -60 0 -24 -41 -7 -66 28 -40 53 -53 62 -96 62
-31 0 -38 -3 -36 -17 6 -34 -31 -24 -85 24 -30 26 -87 75 -127 108 -39 33
-108 98 -153 143 -53 55 -102 94 -140 113 -40 21 -61 38 -68 57 -25 69 -50
100 -142 174 -118 94 -135 103 -211 112 -33 4 -66 12 -73 18 -22 18 -26 2 -5
-18 11 -11 22 -29 26 -40 5 -16 29 -30 89 -53 99 -37 205 -114 230 -166 9 -20
22 -70 28 -111 l11 -74 -36 -40 c-20 -22 -36 -47 -36 -55 0 -8 -15 -21 -32
-29 l-33 -14 38 -1 c33 -1 38 -4 43 -30 7 -33 25 -44 59 -35 32 8 43 43 19 61
-15 11 -16 13 -2 13 9 0 20 -4 23 -10 11 -18 54 -11 65 10 15 28 33 25 58 -10
18 -24 20 -33 11 -53 -9 -20 -6 -34 19 -83 16 -32 33 -74 37 -92 4 -22 12 -32
25 -32 11 0 24 -9 30 -20 6 -11 19 -20 28 -20 10 0 28 -7 40 -16 18 -12 22
-25 22 -64 0 -30 -5 -50 -13 -53 -16 -6 -47 11 -47 26 0 7 -18 40 -41 75 -33
50 -46 62 -67 62 -22 0 -31 9 -48 43 -17 32 -30 44 -58 52 -20 6 -43 20 -52
33 -20 29 -42 28 -56 -3 -9 -19 -7 -29 6 -50 10 -14 25 -29 34 -32 9 -4 29
-19 44 -35 14 -15 40 -31 57 -34 32 -7 62 -40 81 -88 5 -14 21 -31 35 -38 14
-6 25 -15 25 -20 0 -4 11 -8 25 -8 14 0 25 -4 25 -10 0 -5 -13 -10 -30 -10
-22 0 -40 11 -67 40 -28 30 -61 49 -133 77 -52 20 -106 44 -120 53 -40 26 -58
30 -71 14 -10 -12 -7 -19 12 -40 33 -36 88 -70 127 -79 18 -3 56 -25 85 -48
50 -41 84 -59 307 -165 58 -28 128 -65 155 -84 28 -19 79 -51 115 -71 40 -23
76 -52 94 -78 l28 -40 -38 7 c-22 4 -57 20 -78 35 -22 16 -44 29 -48 29 -5 0
-32 16 -61 35 -54 36 -97 46 -97 21 0 -8 8 -17 18 -20 19 -6 48 -46 33 -46
-16 0 -169 80 -173 91 -2 6 -17 9 -33 7 l-30 -4 30 -14 c17 -8 50 -30 75 -50
68 -54 124 -90 141 -90 19 0 84 -23 100 -36 8 -6 62 -34 120 -62 59 -29 112
-59 119 -67 18 -22 175 -115 193 -115 8 0 27 -14 41 -31 l26 -31 0 1904 0
1903 -93 45 c-50 25 -110 60 -132 78 -22 18 -56 35 -77 39 -21 3 -41 10 -44
14 -3 5 -17 9 -32 9 -15 0 -40 7 -56 15 -15 8 -34 15 -41 15 -7 0 -18 7 -25
15 -7 8 -21 15 -30 15 -10 0 -33 8 -52 17 -61 30 -68 33 -84 33 -9 0 -30 6
-47 13 -55 24 -101 39 -130 44 -16 3 -49 16 -73 29 -25 13 -62 24 -83 24 -37
0 -117 20 -171 42 -14 6 -41 14 -60 19 -92 21 -139 35 -146 42 -4 4 -19 7 -34
7 -14 0 -35 7 -46 15 -10 8 -26 15 -35 15 -9 0 -22 7 -29 15 -7 8 -21 15 -30
15 -10 0 -31 6 -47 14 -52 26 -78 35 -120 41 -24 4 -45 11 -49 16 -3 5 -20 9
-37 9 -18 1 -43 7 -57 15 -14 8 -40 14 -58 15 -18 0 -42 5 -53 11 -20 10 -67
21 -174 39 -55 9 -134 36 -150 51 -5 5 -19 9 -31 9 -12 0 -35 7 -50 15 -16 8
-37 15 -46 15 -9 0 -20 5 -23 10 -3 6 -16 10 -28 10 -13 0 -49 14 -80 30 -32
17 -73 30 -91 30 -40 0 -103 30 -136 65 -25 27 -117 75 -218 114 -62 25 -128
83 -157 138 -23 44 -69 108 -105 143 -36 35 -118 90 -135 90 -7 0 -17 5 -20
10 -5 9 -48 30 -120 59 -11 5 -33 14 -50 21 -48 21 -178 46 -307 60 -64 6
-113 7 -140 0 -75 -17 -233 -40 -272 -40 -20 0 -46 -5 -56 -10 -21 -11 -75
-23 -208 -45 -114 -19 -259 -5 -377 37 -16 6 -52 14 -80 18 -60 10 -133 29
-157 41 -10 5 -32 9 -49 9 -17 0 -60 14 -96 30 -61 28 -72 30 -189 30 -69 0
-134 5 -144 10 -17 9 -98 19 -310 39 -47 5 -96 13 -107 20 -12 6 -38 11 -58
11 -20 0 -46 6 -58 12 -12 7 -58 16 -102 20 -168 14 -280 28 -305 37 -14 5
-69 12 -123 15 -53 3 -106 10 -117 16 -10 5 -48 10 -83 10 -35 0 -86 7 -113
15 -27 8 -69 15 -94 15 -25 1 -72 7 -105 15 -33 8 -68 15 -77 15 -17 0 -18
-72 -18 -1378z m270 1026 c77 -52 112 -94 90 -108 -26 -17 -40 -11 -58 22 -9
17 -24 38 -33 46 -9 8 -28 25 -43 38 -14 12 -34 28 -43 33 -16 9 -16 10 3 11
12 0 50 -19 84 -42z m384 -43 c42 -14 88 -25 102 -25 15 0 41 -13 60 -30 35
-30 146 -70 151 -54 9 24 21 34 36 28 9 -3 17 -11 17 -18 0 -7 20 -32 45 -56
43 -43 45 -43 82 -32 31 10 40 9 55 -5 24 -21 23 -46 -4 -100 -20 -39 -25 -43
-55 -41 -46 3 -70 -22 -57 -59 5 -16 21 -32 37 -37 22 -8 31 -6 51 13 19 18
38 24 72 25 43 1 48 4 55 29 16 58 88 127 133 127 8 0 28 -12 43 -26 l28 -25
-30 4 c-34 6 -89 -23 -106 -54 -11 -21 -4 -76 13 -96 6 -7 32 -13 58 -13 25 0
49 -3 53 -6 10 -11 -32 -84 -49 -84 -9 0 -27 9 -41 20 -39 31 -86 26 -117 -11
-14 -17 -26 -37 -26 -45 0 -24 29 -73 50 -84 26 -14 27 -50 2 -50 -11 0 -27 9
-37 20 -33 37 -95 23 -118 -26 -9 -19 -31 -43 -49 -54 -35 -21 -103 -27 -113
-10 -3 6 -23 10 -43 11 -50 1 -60 6 -131 68 -65 59 -80 84 -61 106 10 12 10
15 -2 15 -26 0 -98 62 -118 100 -12 24 -31 42 -52 50 -18 7 -43 22 -55 33 -24
21 -31 61 -13 72 13 8 -15 61 -39 75 -11 5 -29 10 -41 10 -17 0 -19 4 -13 28
12 44 7 72 -18 98 -30 32 -14 51 33 38 29 -9 34 -15 45 -64 13 -62 38 -87 96
-96 46 -8 52 -17 32 -48 -19 -28 -12 -46 29 -85 22 -21 31 -23 54 -15 42 15
54 50 40 118 -11 52 -17 60 -49 77 -38 19 -49 35 -49 74 0 28 -45 67 -74 64
-39 -3 -46 1 -46 24 0 15 9 28 23 35 30 15 25 15 111 -13z m2715 11 c10 -12 2
-16 -46 -26 -82 -16 -120 -21 -103 -13 8 3 19 12 23 19 4 8 20 14 35 15 15 0
36 4 47 9 28 12 31 12 44 -4z m304 -59 c26 -12 47 -28 47 -34 0 -24 -41 -55
-64 -49 -12 3 -89 6 -171 7 -118 2 -163 -2 -213 -16 -34 -10 -65 -22 -68 -26
-3 -5 -15 -9 -28 -9 -12 0 -63 -20 -113 -44 -49 -24 -108 -47 -131 -51 -23 -4
-44 -11 -48 -16 -3 -5 -19 -9 -35 -9 -31 0 -112 -36 -185 -83 -23 -14 -59 -33
-80 -42 -28 -11 -35 -18 -26 -27 8 -8 17 -7 34 4 13 8 37 18 53 22 28 7 159
62 215 91 14 7 38 11 53 8 l29 -6 -29 -23 c-15 -13 -34 -23 -40 -24 -7 0 -43
-14 -80 -32 -38 -17 -77 -34 -88 -39 -67 -24 -131 -52 -140 -60 -15 -14 -89
-10 -111 6 -26 20 -57 19 -85 -3 -66 -50 -142 -81 -154 -62 -10 16 -47 1 -73
-29 -12 -14 -38 -54 -58 -88 -30 -53 -34 -65 -23 -84 9 -17 9 -43 -1 -113 -13
-95 -30 -134 -77 -178 -15 -15 -35 -35 -42 -44 -23 -27 -26 1 -3 33 74 107 77
180 4 101 -22 -23 -43 -40 -46 -37 -6 5 10 35 71 137 39 64 53 100 53 139 0
36 9 55 62 130 27 37 148 139 148 124 0 -5 -4 -13 -10 -16 -5 -3 -10 -15 -10
-25 0 -17 5 -19 33 -13 31 6 91 36 114 59 17 17 259 138 318 159 28 10 55 22
60 26 6 4 35 17 65 29 30 12 70 33 88 46 45 35 95 54 141 54 21 0 61 6 87 14
27 8 75 22 107 30 31 9 81 23 110 31 55 16 181 12 193 -6 7 -12 84 -12 84 0 0
8 -23 19 -72 35 -10 3 -18 13 -18 22 0 14 7 16 53 10 28 -4 73 -17 100 -29z
m-2217 6 c12 -12 13 -18 4 -21 -14 -5 -60 18 -60 30 0 14 38 8 56 -9z m153
-105 c3 -25 -82 10 -93 38 -13 33 17 33 55 1 21 -18 38 -35 38 -39z m-313 -59
c9 -16 -12 -33 -31 -25 -14 5 -15 9 -5 21 15 18 26 19 36 4z m388 -4 c10 -7
16 -19 14 -26 -2 -7 -15 -2 -33 14 -32 28 -16 38 19 12z m-1320 -43 c2 -4 1
-14 -4 -22 -7 -11 -14 -12 -34 -2 -27 12 -35 37 -13 45 13 5 42 -8 51 -21z
m1206 -60 c28 -23 39 -92 16 -111 -25 -21 -47 -7 -40 27 4 19 -1 40 -16 65
-22 36 -22 37 -2 37 11 0 30 -8 42 -18z m1438 -148 c80 -2 100 -9 56 -20 -16
-4 -38 -12 -49 -19 -19 -11 -40 -18 -145 -44 -25 -7 -59 -16 -76 -20 -102 -27
-304 -170 -385 -274 -30 -38 -60 -80 -67 -93 -15 -28 -42 -32 -42 -6 0 20 23
89 33 98 8 9 9 64 2 64 -11 0 -80 -72 -105 -109 -26 -40 -86 -111 -93 -111 -7
0 28 120 45 160 19 43 119 176 187 250 40 42 54 51 63 42 9 -9 7 -17 -10 -33
-27 -24 -23 -33 25 -56 31 -14 37 -15 47 -2 6 8 27 21 46 29 19 7 42 18 50 24
61 45 225 106 283 106 32 0 38 3 33 16 -5 13 -2 14 11 8 10 -5 51 -9 91 -10z
m-2495 -132 c25 -7 53 -27 84 -61 25 -28 51 -51 57 -51 19 0 147 -130 140
-142 -9 -14 15 -28 47 -28 35 0 42 -10 22 -32 -21 -24 -65 -23 -88 2 -20 22
-71 27 -77 8 -3 -8 -27 3 -67 30 -35 23 -69 42 -77 42 -15 0 -27 17 -29 40 -8
85 -17 108 -66 159 l-51 53 34 -5 c18 -3 50 -10 71 -15z m1427 -231 c0 -5 -7
-14 -15 -21 -12 -10 -15 -10 -15 2 0 8 3 18 7 21 9 10 23 9 23 -2z m-1480 -86
c0 -13 -4 -26 -9 -29 -11 -7 -24 41 -16 55 10 15 25 0 25 -26z m2380 5 c0 -13
10 -24 25 -30 28 -11 31 -20 13 -38 -18 -18 -38 -14 -38 7 0 10 -7 24 -15 31
-8 7 -15 21 -15 31 0 11 7 19 15 19 8 0 15 -9 15 -20z m98 -3 c2 -12 -3 -17
-17 -17 -15 0 -21 6 -21 21 0 25 33 22 38 -4z m-2231 -33 c-9 -9 -28 6 -21 18
4 6 10 6 17 -1 6 -6 8 -13 4 -17z m430 -46 c17 -14 16 -40 -1 -64 -12 -15 -17
-17 -27 -6 -7 6 -25 12 -40 12 -31 0 -54 23 -45 45 12 33 80 40 113 13z m150
-14 c7 -18 -33 -64 -57 -64 -20 0 -40 19 -40 40 0 25 21 40 57 40 21 0 36 -6
40 -16z m568 -86 c-10 -31 -75 -85 -75 -62 0 3 12 23 28 45 30 43 58 53 47 17z
m683 -3 c10 -21 9 -27 -3 -31 -25 -10 -45 4 -45 31 0 34 33 34 48 0z m3007 -1
c28 -18 24 -34 -7 -34 -22 0 -58 26 -58 42 0 14 39 9 65 -8z m-2825 -4 c0 -5
-5 -10 -11 -10 -5 0 -7 5 -4 10 3 6 8 10 11 10 2 0 4 -4 4 -10z m-1990 -51 c8
-14 19 -19 38 -17 26 3 27 1 24 -42 -4 -66 -42 -81 -42 -17 0 48 -13 64 -42
49 -13 -7 -30 -17 -40 -24 -32 -23 -65 31 -36 60 21 21 86 15 98 -9z m1744
-11 c15 -18 30 -45 33 -61 3 -15 10 -30 14 -33 5 -3 9 -12 9 -20 0 -10 -16 -4
-55 21 -58 37 -79 42 -90 24 -10 -15 27 -47 79 -70 45 -20 64 -45 47 -62 -6
-6 -27 -1 -59 16 -41 22 -62 26 -116 24 -59 -2 -65 -4 -60 -20 4 -12 -1 -24
-14 -33 -11 -7 -22 -24 -26 -38 -5 -22 -50 -45 -63 -32 -10 10 19 46 42 52 34
8 31 33 -5 47 -16 6 -30 15 -30 18 0 16 33 39 55 39 13 0 37 11 53 25 17 14
37 25 45 25 8 0 23 12 32 28 21 33 66 82 75 82 4 0 19 -15 34 -32z m210 6 c3
-9 6 -26 6 -40 0 -13 7 -41 16 -63 14 -37 14 -42 0 -63 -9 -12 -16 -39 -16
-60 0 -42 -19 -50 -54 -23 -11 8 -28 15 -38 15 -25 0 -36 30 -14 42 9 5 27 31
41 58 l25 50 -19 36 c-11 20 -17 42 -14 50 7 19 59 18 67 -2z m3004 -3 c35
-11 74 -27 87 -35 14 -9 33 -16 45 -16 11 0 51 -16 88 -35 37 -19 88 -37 112
-39 25 -3 68 -8 95 -12 63 -7 183 -51 212 -76 14 -14 41 -21 85 -25 34 -2 79
-10 98 -18 19 -7 51 -19 69 -26 19 -7 49 -25 65 -39 17 -15 65 -36 106 -48 41
-12 86 -30 100 -40 14 -11 38 -22 54 -26 16 -4 38 -13 49 -21 19 -14 19 -14
-4 -19 -13 -3 -35 -7 -49 -8 -21 -3 -25 -9 -28 -41 -4 -46 8 -62 65 -88 50
-23 55 -44 19 -79 -30 -27 -51 -22 -60 17 -9 36 -34 63 -57 63 -22 0 -69 -60
-69 -88 0 -32 41 -55 84 -46 l36 6 0 -41 c0 -31 7 -47 30 -71 33 -34 32 -50
-5 -50 -13 0 -36 -7 -52 -14 -15 -8 -35 -17 -43 -19 -8 -3 -26 -25 -40 -51
l-24 -46 39 -40 c27 -28 48 -40 67 -40 27 0 68 -30 68 -49 0 -5 -6 -11 -14
-14 -8 -3 -20 -15 -26 -26 -15 -29 19 -61 65 -61 38 0 47 -18 20 -40 -20 -16
-19 -29 4 -54 23 -25 52 -92 43 -100 -3 -4 -32 -4 -64 0 -70 8 -98 -9 -98 -61
0 -39 15 -60 60 -83 25 -12 34 -23 32 -37 -2 -11 -3 -36 -4 -55 0 -31 -1 -33
-12 -15 -6 11 -29 37 -51 57 -52 49 -83 50 -124 3 -17 -19 -35 -35 -41 -35 -6
0 -33 18 -61 40 -28 22 -57 40 -64 40 -7 0 -15 18 -18 42 -7 51 -44 88 -88 88
-25 0 -33 6 -45 35 -7 19 -14 48 -14 64 0 36 -23 61 -56 61 -19 0 -29 -8 -40
-36 -12 -29 -19 -35 -41 -32 -14 2 -29 10 -33 18 -4 8 -17 36 -28 62 -17 38
-28 49 -54 56 -30 8 -34 12 -40 57 -7 51 -27 75 -60 75 -11 0 -23 13 -32 34
-30 71 -110 89 -161 36 -28 -29 -70 -40 -91 -22 -5 5 -29 15 -53 22 -53 17
-85 60 -76 105 3 16 9 33 14 38 17 17 81 -14 113 -54 17 -21 34 -39 37 -39 4
0 12 12 18 28 7 15 18 35 25 45 15 20 -1 55 -24 48 -56 -16 -58 -15 -58 28 0
86 -59 139 -100 90 -10 -13 -19 -29 -20 -34 0 -6 -7 -21 -15 -33 -15 -20 -18
-21 -39 -7 -14 9 -29 34 -36 61 -7 24 -17 47 -21 50 -5 3 -9 14 -9 25 0 18 4
17 38 -11 34 -27 42 -29 66 -21 26 11 46 45 46 81 0 33 -49 80 -91 86 -38 6
-39 7 -39 50 0 34 4 44 20 49 11 3 20 9 20 13 0 4 -18 34 -40 67 -39 58 -40
59 -81 56 -36 -2 -41 0 -35 14 3 10 11 38 18 64 14 60 22 67 52 48 18 -12 27
-29 31 -62 7 -44 8 -45 45 -45 62 0 93 55 64 112 -22 44 -21 44 -43 24 -37
-34 -57 16 -25 62 10 15 13 33 9 55 -5 28 -4 30 8 15 9 -11 18 -14 27 -8 12 7
11 12 -3 28 -15 16 -22 32 -14 32 1 0 30 -9 65 -19z m-267 -97 c12 -23 12 -27
-6 -40 -10 -8 -22 -14 -27 -14 -14 0 -40 49 -34 65 9 25 51 18 67 -11z m-3441
-70 c0 -16 -23 -44 -35 -44 -16 0 -18 9 -9 34 6 15 44 24 44 10z m-1865 -84
c3 -5 1 -10 -4 -10 -6 0 -11 5 -11 10 0 6 2 10 4 10 3 0 8 -4 11 -10z m5153
-22 c6 -6 12 -18 12 -28 0 -26 -32 -15 -65 22 l-27 30 34 -7 c18 -4 39 -12 46
-17z m-5083 -55 c10 -14 35 -42 55 -62 32 -31 39 -45 45 -94 4 -32 5 -77 2
-100 -4 -23 -1 -56 5 -74 10 -27 9 -35 -6 -52 -13 -14 -16 -28 -11 -55 8 -42
-6 -66 -40 -66 -16 0 -26 9 -36 31 -14 35 -14 35 -5 237 8 154 1 198 -37 240
-17 18 -18 22 -5 22 9 0 24 -12 33 -27z m5183 -17 c6 -74 -20 -83 -58 -19 -20
34 -20 36 -3 49 33 25 58 13 61 -30z m-3248 -31 c-7 -8 -19 -15 -26 -15 -20 0
-17 27 4 39 23 13 39 -3 22 -24z m-177 -32 c16 -9 6 -22 -20 -25 -26 -3 -29
-7 -37 -65 -9 -60 -19 -77 -28 -50 -3 6 -1 45 5 85 l10 73 31 -7 c17 -3 34 -8
39 -11z m964 -9 c8 -21 -13 -42 -28 -27 -13 13 -5 43 11 43 6 0 13 -7 17 -16z
m4132 -68 c15 -8 34 -22 41 -31 12 -14 12 -18 -1 -26 -20 -12 -29 -11 -29 4 0
8 -17 26 -37 40 -42 30 -24 38 26 13z m-1509 -100 c0 -3 -4 -8 -10 -11 -5 -3
-10 -1 -10 4 0 6 5 11 10 11 6 0 10 -2 10 -4z m-4882 -159 c8 -6 42 -14 76
-17 58 -5 61 -6 64 -32 3 -28 3 -28 -56 -28 -45 0 -63 4 -76 19 -9 10 -38 24
-64 31 -55 15 -67 24 -57 40 9 15 91 6 113 -13z m-116 -71 c29 -8 62 -22 73
-30 19 -14 19 -15 1 -35 -23 -25 -72 -28 -104 -5 -14 9 -33 14 -46 10 -15 -4
-28 0 -37 10 -7 8 -27 21 -46 29 -18 8 -33 21 -33 29 0 19 115 15 192 -8z
m4939 -46 c40 -34 55 -40 92 -40 l45 0 4 -45 c3 -41 1 -44 -17 -39 -39 12 -75
34 -84 53 -6 10 -33 36 -61 57 -27 21 -50 42 -50 46 0 18 26 6 71 -32z m1667
17 c2 -11 -3 -17 -16 -17 -20 0 -36 23 -24 34 11 12 37 1 40 -17z m-6861 -79
c47 -54 80 -138 53 -138 -15 0 -63 23 -82 38 -13 11 -18 30 -18 62 0 66 13 76
47 38z m6661 -55 c3 -30 25 -56 75 -88 8 -5 18 -30 21 -55 3 -25 3 -37 0 -28
-3 9 -25 28 -49 42 -31 19 -45 34 -50 56 -4 17 -18 44 -32 60 -27 33 -23 53
10 48 17 -2 23 -11 25 -35z m-3780 10 c2 -8 -5 -13 -17 -13 -12 0 -21 6 -21
16 0 18 31 15 38 -3z m67 -68 c43 -42 22 -81 -31 -57 -19 9 -24 19 -24 47 0
43 20 46 55 10z m-2860 -88 c0 -15 -4 -28 -9 -29 -14 -5 -30 28 -23 46 10 26
32 14 32 -17z m1993 2 c37 -37 39 -45 12 -59 -11 -6 -20 -15 -20 -21 0 -13 64
-79 77 -79 6 0 31 -16 56 -35 25 -19 52 -35 60 -35 16 0 137 -48 152 -60 6 -5
38 -17 72 -29 33 -11 76 -29 95 -40 18 -11 53 -25 78 -31 25 -7 48 -17 52 -24
15 -23 8 -83 -12 -101 -51 -46 -49 -140 5 -210 48 -64 50 -85 15 -151 -16 -31
-30 -69 -30 -83 0 -27 43 -106 154 -284 33 -54 66 -108 73 -121 15 -27 189
-181 247 -217 50 -32 136 -122 136 -144 0 -8 18 -35 40 -59 25 -27 38 -49 34
-59 -3 -8 -1 -18 5 -22 6 -3 11 -13 11 -21 0 -18 63 -80 111 -109 18 -11 46
-29 64 -40 17 -11 53 -33 80 -50 60 -36 148 -122 140 -135 -10 -16 -34 -11
-57 12 -16 16 -23 18 -26 8 -3 -7 3 -17 12 -22 24 -14 19 -28 -14 -39 -16 -6
-30 -15 -30 -19 0 -5 -20 -18 -45 -30 -89 -43 -293 -204 -425 -335 -17 -16
-37 -25 -57 -25 -48 0 -47 -14 2 -38 l45 -22 0 -72 c-1 -85 -13 -112 -60 -136
-28 -14 -36 -24 -41 -55 -3 -21 -12 -50 -19 -65 -7 -15 -20 -43 -28 -62 -8
-19 -19 -43 -23 -52 -5 -10 -9 -28 -9 -40 0 -13 -7 -36 -15 -51 -8 -16 -14
-46 -13 -68 1 -21 -1 -42 -5 -45 -8 -8 -73 -8 -86 0 -19 12 14 143 56 225 13
24 23 58 23 75 0 42 26 126 47 148 15 17 15 19 0 36 -14 15 -17 40 -17 125 0
59 -4 107 -8 107 -5 0 -13 10 -19 23 -15 32 -134 193 -188 253 -58 66 -148
203 -209 319 -129 243 -311 461 -486 581 -36 24 -81 58 -100 74 -32 28 -35 35
-33 78 1 27 7 60 12 75 19 51 34 161 32 247 -2 105 30 285 70 396 16 44 29 85
29 91 0 6 10 24 23 40 25 30 57 107 57 137 0 9 -11 32 -24 49 -13 18 -28 47
-34 64 -6 18 -25 53 -42 79 -26 37 -31 52 -26 79 6 28 3 36 -14 45 -22 12 -28
60 -7 60 7 0 28 -14 45 -31z m-1453 3 c6 -4 10 -32 10 -62 0 -53 -1 -55 -27
-58 -23 -3 -30 2 -39 24 -21 57 18 124 56 96z m5069 -45 c-1 -21 -4 -40 -7
-43 -11 -11 -47 17 -53 41 -8 33 3 47 34 43 24 -3 27 -7 26 -41z m-4789 13 c4
-6 1 -17 -5 -25 -7 -9 -10 -28 -7 -44 7 -35 -10 -55 -33 -38 -9 7 -25 25 -37
40 -21 27 -21 30 -6 53 11 17 24 24 49 24 18 0 36 -5 39 -10z m4903 -114 c6
-29 -15 -43 -35 -24 -14 14 -14 20 -3 33 16 19 34 15 38 -9z m-5668 -16 c23
-12 51 -38 66 -61 25 -40 28 -41 66 -36 34 5 45 1 65 -19 39 -39 28 -66 -37
-87 -30 -9 -61 -25 -68 -35 -10 -13 -27 -17 -69 -17 l-56 0 -15 -65 c-18 -76
-19 -77 -34 -62 -8 8 -8 15 0 24 8 10 6 20 -8 38 -11 14 -20 31 -20 39 0 8
-22 35 -49 60 -42 38 -50 53 -53 86 -3 35 0 40 19 43 18 3 23 -3 29 -35 7 -40
54 -103 87 -116 14 -5 28 2 54 28 31 31 34 39 28 71 -10 54 -26 83 -49 90 -31
9 -56 34 -56 56 0 25 49 24 100 -2z m-266 -23 c13 -36 -3 -54 -33 -36 -28 18
-33 35 -14 54 20 21 36 15 47 -18z m5686 -29 c0 -17 -27 -7 -51 18 l-24 26 38
-18 c20 -10 37 -21 37 -26z m298 -88 c20 -11 49 -28 64 -38 179 -114 253 -158
280 -166 9 -3 27 -24 39 -48 26 -53 46 -70 127 -109 34 -17 62 -32 62 -34 0
-2 -13 -19 -30 -37 -35 -38 -38 -63 -10 -71 11 -3 20 -12 20 -21 0 -20 -14
-20 -31 0 -7 8 -25 22 -41 30 -16 8 -26 19 -23 25 11 16 -45 73 -83 85 -29 9
-38 17 -43 42 -9 45 -26 61 -70 68 -29 5 -43 14 -57 38 -11 18 -39 41 -68 55
-27 13 -61 39 -76 57 -27 31 -30 32 -122 36 -84 3 -97 6 -120 27 -27 25 -34
55 -16 66 6 4 30 -3 53 -14 61 -28 82 -30 83 -6 3 33 4 35 14 35 6 0 27 -9 48
-20z m962 -88 c0 -53 -12 -72 -47 -72 -21 0 -23 5 -23 48 0 53 12 72 47 72 21
0 23 -5 23 -48z m-3886 -67 c-5 -29 -2 -38 22 -60 27 -25 37 -26 83 -14 8 2
20 -7 27 -19 6 -13 17 -29 23 -35 16 -16 14 -38 -6 -53 -16 -12 -16 -15 -3
-23 8 -6 25 -8 36 -5 12 3 25 1 28 -5 19 -30 85 1 72 35 -3 8 -1 24 4 34 8 14
16 17 37 11 25 -7 28 -12 31 -58 3 -49 1 -52 -29 -67 -42 -21 -108 -21 -115
-1 -4 9 -16 14 -29 13 -23 -3 -89 45 -148 108 -47 49 -71 136 -45 162 18 18
20 15 12 -23z m1561 -411 c0 -13 -8 -20 -28 -22 -32 -4 -44 16 -27 48 10 20
13 20 33 7 12 -8 22 -23 22 -33z m-3437 -10 c34 -10 27 -20 -35 -49 -32 -15
-68 -37 -80 -48 -23 -21 -46 -16 -25 5 7 7 12 24 12 39 0 47 58 71 128 53z
m3500 -26 c13 -13 16 -48 4 -48 -14 0 -32 23 -32 42 0 21 11 23 28 6z m30
-158 c3 -17 0 -21 -11 -17 -50 19 -86 18 -106 -2 l-21 -21 -37 20 c-35 18 -53
36 -53 53 0 11 39 9 76 -5 25 -9 39 -8 70 5 46 18 77 6 82 -33z m36 -62 c24
-33 1 -51 -25 -19 -10 13 -19 27 -19 32 0 17 29 9 44 -13z m196 -53 c9 -11 10
-19 2 -27 -14 -14 -32 -1 -32 23 0 23 13 25 30 4z m-4119 -75 c46 0 59 -3 59
-15 0 -8 -5 -15 -11 -15 -7 0 -8 -16 -3 -45 5 -38 4 -45 -10 -45 -10 0 -16 9
-16 24 0 16 -7 26 -21 29 -11 3 -23 15 -26 26 -4 17 -13 21 -49 21 -24 0 -44
4 -44 9 0 11 30 20 48 15 8 -2 40 -4 73 -4z m-178 -37 c-13 -2 -23 -9 -23 -14
0 -5 -10 -9 -21 -9 -18 0 -19 2 -9 15 7 8 27 14 44 14 23 -1 25 -3 9 -6z m294
-295 c-3 -8 -6 -5 -6 6 -1 11 2 17 5 13 3 -3 4 -12 1 -19z m68 -80 c4 -18 10
-35 14 -38 3 -3 11 -14 17 -25 6 -11 17 -20 25 -20 15 0 89 -45 155 -94 23
-17 44 -31 47 -31 9 0 131 -90 138 -102 4 -6 20 -7 37 -3 16 3 33 2 36 -3 5
-9 -16 -30 -128 -124 -62 -52 -216 -272 -216 -309 0 -13 -21 -57 -78 -165 -40
-77 -132 -273 -132 -282 0 -4 -15 -22 -32 -39 -29 -27 -41 -31 -93 -33 -99 -3
-115 -1 -130 14 -13 13 -8 16 37 26 59 12 98 34 98 54 0 7 7 19 15 26 8 7 15
25 15 41 0 18 7 32 20 39 11 6 20 18 20 28 0 9 7 30 15 46 14 27 14 30 -4 48
-11 10 -24 18 -30 18 -5 0 -12 7 -15 16 -4 9 -9 14 -13 11 -3 -4 -1 -13 6 -20
11 -14 5 -47 -9 -47 -4 0 -21 5 -39 11 -17 6 -39 8 -49 3 -9 -4 -37 -9 -62
-10 -25 -1 -52 -3 -60 -3 -26 -2 -114 6 -153 14 -61 12 -58 29 4 21 47 -6 57
-4 77 14 40 37 26 54 -53 64 -39 4 -83 14 -100 21 -16 8 -43 17 -60 21 -41 9
-85 32 -85 44 0 13 62 13 97 -1 17 -7 127 -13 273 -15 141 -2 265 -9 292 -16
36 -9 56 -9 86 0 34 10 43 19 62 64 14 33 20 61 16 80 -4 20 -1 30 9 34 8 4
15 16 15 28 0 12 9 29 20 39 15 12 19 24 14 42 -4 17 -1 32 11 45 16 18 16 20
-2 44 -10 14 -33 33 -50 43 -36 19 -42 43 -18 63 13 11 18 10 31 -9 22 -31 58
-25 62 11 3 26 1 27 -38 25 -34 -1 -45 3 -61 23 -26 34 -25 63 1 55 15 -5 18
-3 14 9 -9 24 -43 30 -63 12 -10 -9 -32 -16 -49 -16 -28 0 -32 4 -32 25 0 15
11 36 25 49 29 27 33 79 10 110 -13 17 -13 22 3 37 24 25 29 23 37 -13z m6093
-160 c14 -14 16 -74 2 -83 -16 -10 -50 33 -50 65 0 22 5 30 18 30 10 0 23 -5
30 -12z m-1588 -11 c0 -39 -147 -139 -258 -176 -80 -26 -118 -32 -255 -41
-241 -15 -257 -20 -472 -125 -111 -55 -223 -103 -270 -115 -44 -12 -93 -26
-110 -32 -16 -6 -55 -16 -86 -23 -96 -21 -203 -57 -231 -76 -14 -11 -30 -19
-35 -19 -4 -1 -26 -9 -48 -20 -22 -11 -44 -19 -48 -20 -5 0 -42 -22 -83 -50
-41 -28 -79 -50 -84 -50 -5 0 -13 -6 -17 -13 -4 -8 -20 -22 -35 -32 -16 -9
-28 -24 -28 -31 0 -8 -4 -14 -9 -14 -5 0 -27 -18 -49 -41 -22 -23 -42 -37 -45
-32 -6 10 79 113 93 113 5 0 24 15 42 33 44 45 181 139 243 167 28 12 63 32
80 44 62 44 139 76 233 96 146 32 281 81 450 165 198 99 267 117 537 140 158
14 298 52 382 105 27 17 56 33 66 36 9 4 17 10 17 15 0 5 5 9 10 9 6 0 10 -6
10 -13z m1398 -82 c3 -36 -11 -60 -30 -49 -10 6 -11 78 -1 88 15 14 28 -2 31
-39z m-579 -32 c51 -29 53 -69 3 -57 -38 9 -52 23 -52 50 0 29 8 30 49 7z
m679 -58 c7 -14 12 -31 12 -37 0 -5 11 -23 25 -40 28 -33 34 -78 10 -78 -8 0
-22 15 -31 33 -9 17 -23 40 -32 49 -20 23 -26 98 -8 98 7 0 18 -11 24 -25z
m-6148 -10 c14 -8 51 -14 83 -15 64 0 72 -12 26 -36 -22 -11 -42 -14 -68 -9
-20 4 -79 8 -131 9 -52 1 -104 6 -114 11 -19 8 -19 9 0 16 10 4 42 8 69 9 28
0 61 7 75 15 14 8 27 14 30 14 3 0 16 -6 30 -14z m5580 -25 c28 -15 63 -68 56
-86 -5 -12 -12 -12 -46 6 -36 18 -60 51 -60 81 0 12 26 12 50 -1z m184 -110
c21 -8 26 -16 26 -44 0 -49 -22 -64 -65 -43 -41 20 -53 51 -29 78 19 22 32 23
68 9z m300 -90 c16 -22 38 -42 48 -46 22 -7 24 -37 3 -54 -18 -15 -30 -7 -49
31 -13 26 -57 43 -91 35 -26 -7 -35 -35 -24 -78 7 -25 5 -28 -15 -28 -28 0
-49 22 -41 42 3 7 -1 22 -9 33 -15 19 -15 18 -16 -12 0 -39 -26 -45 -54 -14
-26 29 -16 54 26 66 21 5 43 16 50 23 6 6 23 12 38 12 14 1 36 7 50 15 38 22
53 18 84 -25z m-474 -85 c14 -17 7 -45 -13 -45 -7 0 -21 6 -31 13 -17 13 -17
14 -1 30 20 21 29 21 45 2z m433 -89 c21 -16 21 -22 2 -30 -23 -8 -45 4 -45
25 0 22 17 24 43 5z m122 -56 c3 -5 -1 -10 -9 -10 -9 0 -16 5 -16 10 0 6 4 10
9 10 6 0 13 -4 16 -10z m-94 -111 c34 -36 33 -50 -4 -63 -45 -16 -120 57 -90
87 18 18 66 6 94 -24z m-1046 -24 c21 -35 35 -47 66 -55 38 -11 49 -23 29 -35
-17 -11 -11 -71 9 -89 10 -9 35 -20 55 -23 33 -5 41 -2 68 28 29 31 32 32 42
15 6 -10 29 -35 51 -55 77 -71 85 -81 91 -108 7 -33 37 -58 82 -67 36 -9 38
-3 22 56 -6 21 -20 44 -32 52 -13 10 -18 21 -14 32 5 14 13 9 47 -27 48 -52
89 -113 89 -133 0 -28 -66 -83 -150 -125 -47 -24 -107 -60 -135 -81 -81 -60
-211 -140 -229 -140 -9 0 -74 33 -144 74 -145 84 -182 105 -271 153 -35 19
-86 49 -115 67 -28 18 -73 45 -101 60 -27 15 -77 45 -110 66 -150 98 -181 112
-238 106 -126 -13 -183 -23 -204 -34 -34 -19 -94 -14 -169 14 -201 74 -549 54
-718 -40 -36 -20 -70 -36 -78 -37 -14 0 -95 -47 -205 -119 -97 -64 -104 -68
-141 -85 -19 -8 -47 -26 -64 -40 -16 -14 -34 -25 -39 -25 -14 0 -11 21 6 39
74 81 126 122 146 116 22 -7 36 13 15 21 -9 3 -16 10 -16 15 0 13 34 11 47 -2
8 -8 13 -8 17 0 4 6 1 11 -7 11 -14 0 -33 47 -24 57 3 2 23 -4 46 -13 60 -24
72 -7 26 39 -34 34 -45 57 -27 57 15 0 69 -30 82 -45 14 -17 40 -20 40 -5 0 6
-7 13 -15 17 -9 3 -22 18 -31 34 -8 16 -21 29 -29 29 -8 0 -15 5 -15 10 0 6
-11 16 -25 22 -24 11 -35 38 -15 38 5 0 42 -22 82 -50 40 -27 76 -50 80 -50
10 0 11 30 1 30 -13 1 -44 48 -35 54 5 3 26 -4 47 -15 47 -26 67 -19 59 19 -6
28 -4 30 40 36 26 4 55 5 65 1 11 -3 92 1 181 10 89 8 166 13 171 9 5 -3 53
-5 107 -5 110 0 132 -4 132 -25 0 -8 6 -14 13 -14 6 0 49 -4 95 -10 45 -5 89
-7 96 -4 26 10 27 34 1 46 -44 20 -27 46 25 39 8 -1 44 -3 80 -5 42 -1 75 -9
93 -20 33 -22 34 -29 5 -45 -21 -10 -19 -11 12 -6 19 4 67 8 105 10 44 3 98
15 145 34 41 15 111 42 156 59 99 38 230 75 247 69 6 -2 12 -12 12 -23 0 -30
78 -33 98 -4 15 21 96 59 129 60 10 0 28 -19 43 -45z m-2323 -217 c-6 -6 -15
-8 -19 -4 -4 4 -1 11 7 16 19 12 27 3 12 -12z m-3382 -86 c0 -10 -7 -27 -15
-38 -22 -29 -20 -140 3 -153 44 -24 155 26 233 105 58 59 123 94 173 94 l31
-1 -23 -17 c-13 -9 -61 -54 -107 -100 -46 -45 -94 -87 -107 -92 -13 -5 -30
-14 -38 -19 -74 -46 -170 -55 -213 -20 -71 55 -54 199 29 248 27 15 34 14 34
-7z m3186 -329 c-4 -14 -23 -46 -43 -70 -31 -37 -38 -42 -46 -28 -9 17 3 39
36 63 9 7 17 19 17 26 0 14 20 36 33 36 5 0 6 -12 3 -27z m-96 -138 c0 -29
-28 -79 -53 -95 -18 -11 -19 -10 -13 17 3 15 9 44 12 63 9 47 22 64 40 49 8
-6 14 -22 14 -34z m1574 -170 c3 -8 1 -15 -3 -15 -5 0 -11 7 -15 15 -3 8 -1
15 3 15 5 0 11 -7 15 -15z m54 -44 c3 -8 -1 -12 -9 -9 -7 2 -15 10 -17 17 -3
8 1 12 9 9 7 -2 15 -10 17 -17z m113 -55 c8 5 282 -193 340 -246 10 -8 28 -25
42 -37 14 -13 34 -23 45 -23 20 0 79 -36 122 -75 14 -12 33 -25 43 -28 9 -4
17 -13 17 -21 0 -8 14 -17 32 -21 35 -8 84 -40 92 -61 3 -8 -8 -20 -29 -30
-18 -8 -36 -22 -39 -30 -9 -25 -37 -15 -86 28 -27 24 -81 72 -121 108 -41 36
-99 88 -129 117 -100 94 -159 145 -212 183 -29 21 -63 52 -76 69 -12 17 -31
31 -41 31 -31 0 -81 33 -81 53 0 18 2 18 36 -2 19 -12 40 -19 45 -15z m799
-566 c8 -15 8 -20 -3 -20 -14 0 -37 19 -37 32 0 16 30 7 40 -12z m-523 -10 c3
-11 9 -20 14 -20 5 0 9 -5 9 -10 0 -6 -9 -5 -22 2 -28 16 -38 29 -32 40 9 15
26 8 31 -12z m570 -26 c-3 -3 -12 -4 -19 -1 -8 3 -5 6 6 6 11 1 17 -2 13 -5z
m-422 -136 c6 -4 2 -8 -7 -8 -10 0 -18 7 -18 17 0 9 3 12 8 7 4 -5 12 -12 17
-16z"/>
<path d="M1170 6642 c-22 -17 -23 -23 -12 -46 22 -48 85 -25 94 34 3 22 -1 25
-28 28 -19 2 -40 -4 -54 -16z"/>
<path d="M1023 6531 c-47 -22 -66 -50 -58 -84 4 -15 1 -28 -9 -36 -23 -20 -19
-46 8 -59 34 -15 51 5 36 43 -15 39 -1 50 43 36 37 -13 74 -4 96 23 10 12 10
23 1 50 -17 51 -47 58 -117 27z"/>
<path d="M1190 6375 c-20 -24 -4 -65 24 -65 21 0 25 -7 32 -47 l9 -48 45 -3
c33 -3 47 1 57 14 34 47 1 94 -65 94 -36 0 -42 3 -48 25 -8 34 -38 50 -54 30z"/>
<path d="M1068 6289 c-11 -6 -18 -22 -18 -39 0 -23 5 -31 25 -36 14 -3 37 -3
51 0 22 6 25 11 19 34 -3 15 -9 30 -13 33 -15 14 -48 18 -64 8z"/>
<path d="M1172 6158 c3 -25 34 -36 51 -19 14 14 -9 41 -35 41 -14 0 -19 -6
-16 -22z"/>
<path d="M5865 5590 c-21 -23 -20 -25 15 -33 41 -10 54 6 27 31 l-24 22 -18
-20z"/>
<path d="M6006 5508 c-37 -58 -17 -108 38 -94 37 9 43 31 18 74 -26 46 -37 49
-56 20z"/>
<path d="M6221 5451 c-22 -40 18 -79 63 -61 24 9 25 11 12 42 -17 40 -58 51
-75 19z"/>
<path d="M6452 5424 c-38 -30 -42 -54 -9 -54 27 0 67 26 67 44 0 31 -25 35
-58 10z"/>
<path d="M5877 5342 c-18 -11 -26 -23 -24 -34 3 -9 -4 -25 -14 -34 -24 -21
-12 -38 37 -54 45 -15 79 -6 100 25 22 34 11 71 -29 95 -38 24 -35 24 -70 2z"/>
<path d="M6581 5333 c-15 -12 -23 -31 -24 -53 -3 -46 20 -46 50 -1 37 54 19
90 -26 54z"/>
<path d="M6160 5320 c0 -5 5 -10 10 -10 6 0 10 5 10 10 0 6 -4 10 -10 10 -5 0
-10 -4 -10 -10z"/>
<path d="M6334 5296 c-11 -29 0 -51 26 -51 21 0 25 5 25 30 0 24 -5 31 -23 33
-13 2 -24 -3 -28 -12z"/>
<path d="M6886 5227 c-54 -51 -47 -93 17 -104 54 -8 87 16 87 66 0 40 -10 54
-46 65 -16 5 -31 -2 -58 -27z"/>
<path d="M6674 5200 c-24 -9 -46 -62 -38 -85 7 -17 41 -19 78 -5 20 7 26 17
26 39 0 16 -7 37 -16 45 -17 18 -20 18 -50 6z"/>
<path d="M6120 5190 c0 -5 7 -10 15 -10 8 0 15 5 15 10 0 6 -7 10 -15 10 -8 0
-15 -4 -15 -10z"/>
<path d="M6438 5144 c-21 -44 13 -74 68 -60 48 12 18 86 -35 86 -13 0 -26 -9
-33 -26z"/>
<path d="M5993 5140 c-43 -18 -59 -91 -24 -110 36 -19 78 -12 100 16 52 66 3
126 -76 94z"/>
<path d="M6194 5103 c-8 -31 1 -48 37 -70 37 -22 59 -11 59 29 0 26 -6 37 -31
51 -42 24 -57 21 -65 -10z"/>
<path d="M6759 5042 c-28 -25 -30 -31 -20 -50 18 -33 60 -51 93 -40 36 13 45
44 21 76 -31 42 -59 46 -94 14z"/>
<path d="M6600 4988 c0 -7 -3 -24 -7 -37 -5 -19 -2 -22 12 -19 25 4 34 68 11
68 -9 0 -16 -6 -16 -12z"/>
<path d="M6330 4965 c0 -21 34 -37 48 -23 21 21 13 38 -18 38 -20 0 -30 -5
-30 -15z"/>
<path d="M6095 4945 c-31 -30 -31 -40 -3 -59 34 -24 67 -20 80 9 10 22 8 29
-12 50 -29 31 -35 31 -65 0z"/>
<path d="M6886 4900 c-54 -34 -60 -67 -20 -107 23 -22 31 -25 72 -19 25 3 49
12 54 19 15 23 8 66 -14 91 -31 33 -57 38 -92 16z"/>
<path d="M6438 4872 c-20 -4 -34 -43 -24 -67 8 -22 102 -21 110 1 14 37 -37
76 -86 66z"/>
<path d="M6670 4857 c-17 -8 -25 -21 -25 -37 0 -20 7 -27 37 -34 61 -15 94 34
46 68 -27 19 -26 19 -58 3z"/>
<path d="M6255 4809 c-10 -15 3 -25 16 -12 7 7 7 13 1 17 -6 3 -14 1 -17 -5z"/>
<path d="M6310 4720 c-16 -10 -9 -40 11 -53 20 -13 79 9 79 28 0 15 -73 35
-90 25z"/>
<path d="M6551 4694 c-25 -32 -26 -37 -3 -56 32 -28 52 -29 77 -4 29 29 23 63
-12 77 -35 13 -39 12 -62 -17z"/>
<path d="M6770 4683 c-32 -12 -39 -24 -29 -47 18 -40 46 -50 81 -29 17 10 36
26 42 35 20 32 -44 59 -94 41z"/>
<path d="M6440 4581 c-16 -30 -12 -49 16 -87 32 -41 59 -44 69 -7 4 19 0 34
-14 54 -12 16 -21 35 -21 44 0 22 -37 19 -50 -4z"/>
<path d="M6887 4546 c-34 -15 -47 -32 -47 -63 0 -27 6 -30 57 -39 34 -5 45 -2
62 15 27 27 27 46 -4 76 -27 28 -29 28 -68 11z"/>
<path d="M6652 4538 c-18 -18 -15 -63 6 -87 14 -17 23 -19 52 -12 32 7 35 10
33 41 -2 53 -60 89 -91 58z"/>
<path d="M6973 4409 c-55 -35 -40 -89 30 -108 70 -20 88 -13 103 39 8 25 14
46 14 46 0 3 -99 44 -107 44 -4 0 -23 -10 -40 -21z"/>
<path d="M6766 4379 c-32 -25 -33 -53 -4 -73 29 -21 57 -20 87 3 30 23 22 55
-19 76 -36 19 -32 19 -64 -6z"/>
<path d="M6876 4228 c-56 -52 -38 -98 38 -101 37 -2 51 2 62 17 19 27 18 49
-7 80 -25 32 -60 34 -93 4z"/>
<path d="M3547 1762 c-24 -27 -23 -82 2 -82 23 0 63 63 55 85 -8 21 -37 19
-57 -3z"/>
<path d="M964 2029 c-19 -21 -19 -21 6 -18 14 2 26 12 28 22 5 23 -11 22 -34
-4z"/>
<path d="M5782 1890 c-32 -30 -27 -40 22 -40 44 0 56 10 56 46 0 21 -53 17
-78 -6z"/>
<path d="M6037 1894 c-8 -8 1 -24 14 -24 5 0 9 7 9 15 0 15 -12 20 -23 9z"/>
<path d="M6093 1863 c-27 -10 -2 -94 32 -107 17 -6 55 9 67 28 13 20 8 53 -10
69 -18 16 -63 21 -89 10z"/>
<path d="M5896 1807 c-21 -16 -18 -45 6 -61 23 -14 72 4 76 29 4 20 -22 45
-48 45 -9 0 -24 -6 -34 -13z"/>
<path d="M5689 1790 c-11 -7 -11 -14 -3 -27 14 -23 48 -23 52 -1 4 21 -29 40
-49 28z"/>
<path d="M6450 1737 c-14 -6 -26 -11 -27 -11 -1 -1 -4 -13 -8 -28 -13 -51 76
-103 113 -66 21 21 14 67 -14 93 -30 28 -30 28 -64 12z"/>
<path d="M6219 1709 c-26 -26 -21 -59 13 -79 25 -13 30 -13 55 2 35 21 40 47
13 76 -26 28 -54 28 -81 1z"/>
<path d="M6554 1588 c-7 -11 50 -68 68 -68 18 0 6 40 -18 59 -31 24 -40 26
-50 9z"/>
<path d="M5966 431 c-3 -5 1 -12 10 -15 25 -10 34 -7 34 9 0 16 -35 21 -44 6z"/>
<path d="M2495 6636 c-51 -24 -95 -59 -95 -77 0 -10 77 29 111 58 8 6 27 13
42 15 15 1 29 8 30 13 4 19 -38 14 -88 -9z"/>
<path d="M1922 6218 c-21 -21 -15 -40 11 -32 27 8 47 23 47 35 0 13 -44 11
-58 -3z"/>
<path d="M4385 5791 c-133 -6 -143 -8 -203 -39 -53 -28 -128 -88 -191 -153 -9
-9 -38 -40 -65 -67 -31 -32 -46 -56 -43 -66 12 -30 115 -87 242 -131 219 -78
261 -88 368 -90 57 -1 103 -7 110 -14 15 -15 30 -14 74 6 56 25 73 43 73 76 0
24 -3 28 -17 21 -10 -4 -38 -8 -63 -8 -25 -1 -56 -7 -68 -15 -25 -13 -72 -8
-72 9 0 6 9 10 21 10 11 0 33 14 47 30 32 36 70 39 117 10 l33 -20 10 27 c6
16 14 43 17 61 4 19 20 48 36 67 25 29 28 36 18 57 -9 20 -7 31 10 59 24 39
26 58 9 93 -32 71 -151 91 -463 77z m80 -234 c22 -17 16 -21 -65 -42 -36 -9
-84 -26 -108 -37 -31 -15 -47 -17 -54 -10 -13 13 0 32 45 64 51 36 148 49 182
25z"/>
<path d="M3170 5620 c0 -5 5 -10 10 -10 6 0 10 5 10 10 0 6 -4 10 -10 10 -5 0
-10 -4 -10 -10z"/>
<path d="M1816 5292 c-2 -4 -9 -41 -15 -83 -6 -42 -15 -88 -21 -103 -23 -62
-5 -115 28 -82 13 13 18 39 19 104 2 48 6 106 9 130 4 26 2 42 -4 42 -6 0 -13
-3 -16 -8z"/>
<path d="M2564 5226 c-26 -7 -52 -24 -70 -45 -28 -34 -29 -38 -32 -162 -3
-108 -1 -132 15 -160 l18 -34 6 80 c3 44 13 94 21 110 8 17 18 45 22 64 9 50
32 71 76 71 41 0 64 -18 54 -43 -8 -22 15 -87 30 -87 7 0 27 5 44 11 44 15 61
2 50 -39 -16 -61 -108 -92 -163 -56 -57 37 -89 -42 -45 -113 24 -40 58 -50 98
-29 17 9 37 16 45 16 8 0 38 18 66 41 56 44 81 46 81 4 0 -20 -7 -29 -31 -37
-24 -8 -30 -15 -27 -36 5 -42 54 -69 124 -68 52 1 59 3 62 23 2 12 -9 35 -25
55 -16 18 -34 44 -41 58 -6 14 -22 38 -34 53 l-22 28 26 22 c51 42 42 96 -11
68 -16 -9 -29 -7 -57 6 -31 15 -41 27 -56 72 -19 58 -26 65 -104 111 -56 32
-59 33 -120 16z"/>
<path d="M3710 4967 c0 -19 10 -27 26 -20 21 8 17 33 -6 33 -11 0 -20 -6 -20
-13z"/>
<path d="M4378 4963 c7 -3 16 -2 19 1 4 3 -2 6 -13 5 -11 0 -14 -3 -6 -6z"/>
<path d="M3560 4835 c-13 -16 -7 -60 12 -82 16 -20 48 -16 48 5 0 10 5 23 11
29 8 8 6 18 -7 37 -21 29 -46 33 -64 11z"/>
<path d="M2637 4694 c-12 -12 40 -44 72 -44 40 0 40 12 -1 26 -18 6 -40 14
-49 18 -8 4 -18 4 -22 0z"/>
<path d="M3920 4640 c0 -11 7 -20 15 -20 8 0 15 9 15 20 0 11 -7 20 -15 20 -8
0 -15 -9 -15 -20z"/>
<path d="M3692 4638 c6 -16 36 -34 44 -26 3 4 4 14 1 23 -7 17 -51 21 -45 3z"/>
<path d="M5050 4623 c-120 -53 -164 -77 -200 -109 -42 -38 -51 -72 -25 -94 18
-15 71 -6 96 16 13 12 31 15 76 11 75 -7 157 -21 211 -38 40 -12 45 -11 65 9
12 12 32 30 44 40 28 21 36 80 13 93 -8 4 -42 16 -75 25 -33 10 -78 28 -101
41 -47 27 -57 27 -104 6z"/>
<path d="M4715 4609 c-4 -6 -5 -13 -2 -16 7 -7 27 6 27 18 0 12 -17 12 -25 -2z"/>
<path d="M3455 4446 c-20 -31 -7 -61 31 -70 51 -13 76 48 32 78 -31 22 -45 20
-63 -8z"/>
<path d="M3706 4426 c7 -19 48 -22 42 -3 -3 6 -14 13 -26 15 -16 3 -20 -1 -16
-12z"/>
<path d="M3590 4332 c-45 -36 -1 -99 50 -72 27 14 23 57 -6 77 -19 12 -24 11
-44 -5z"/>
<path d="M3796 4334 c-3 -9 -6 -31 -6 -49 0 -29 4 -34 29 -40 70 -15 98 49 39
85 -40 24 -54 25 -62 4z"/>
<path d="M4043 4333 c-18 -7 -16 -55 2 -79 15 -19 15 -19 30 0 9 12 12 29 8
45 -10 43 -13 45 -40 34z"/>
<path d="M4250 4322 c0 -10 -5 -23 -12 -30 -15 -15 4 -37 25 -29 14 5 29 55
20 69 -9 15 -33 8 -33 -10z"/>
<path d="M5135 4219 c9 -27 25 -40 38 -32 10 6 -14 45 -32 51 -10 3 -11 -2 -6
-19z"/>
<path d="M3888 4173 c-9 -10 -21 -29 -28 -43 -11 -21 -11 -26 5 -35 10 -5 30
-20 45 -32 56 -46 100 -21 85 47 -15 67 -73 102 -107 63z"/>
<path d="M4344 4156 c-7 -17 13 -76 25 -76 4 0 15 6 25 13 15 11 17 19 9 43
-11 33 -49 46 -59 20z"/>
<path d="M4140 4141 c-16 -32 -12 -41 26 -57 39 -17 64 -7 64 26 0 43 -70 67
-90 31z"/>
<path d="M4572 4110 c-29 -28 -28 -36 10 -54 42 -21 65 -20 78 4 9 17 6 25
-14 45 -30 30 -46 31 -74 5z"/>
<path d="M1152 4108 c-29 -29 -2 -68 48 -68 18 0 21 5 18 38 -3 31 -7 37 -28
40 -14 2 -31 -3 -38 -10z"/>
<path d="M5235 4091 c-6 -11 33 -36 42 -27 3 3 3 12 0 21 -7 17 -33 20 -42 6z"/>
<path d="M826 4054 c-20 -20 -20 -38 0 -55 8 -7 22 -25 30 -40 7 -15 24 -31
36 -35 38 -11 38 -25 2 -59 -19 -18 -34 -38 -34 -45 0 -26 93 -100 144 -115
68 -19 138 -23 143 -8 6 18 -55 81 -90 93 -37 12 -87 77 -87 112 1 25 21 58
37 58 5 0 31 -23 58 -51 45 -48 50 -50 62 -33 7 10 13 21 13 25 0 4 7 9 15 11
13 2 11 9 -7 35 -17 24 -35 35 -67 42 -24 5 -49 8 -55 6 -46 -14 -76 -13 -76
0 0 16 -75 75 -96 75 -7 0 -20 -7 -28 -16z"/>
<path d="M3990 3994 c-26 -40 -19 -71 22 -98 24 -16 89 -9 110 12 18 18 -2 71
-36 97 -46 35 -70 32 -96 -11z"/>
<path d="M6214 4005 c-8 -21 4 -35 32 -35 29 0 31 11 6 33 -23 21 -31 21 -38
2z"/>
<path d="M1246 4003 c-14 -14 -4 -33 30 -53 27 -17 38 -20 47 -11 8 8 9 16 1
28 -12 20 -68 45 -78 36z"/>
<path d="M4455 3988 c-27 -15 -35 -28 -35 -60 0 -22 9 -33 40 -53 39 -25 48
-46 31 -73 -6 -10 -18 -8 -57 13 -67 36 -94 63 -94 97 0 32 -31 68 -58 68 -40
0 -73 -70 -52 -109 6 -12 17 -21 24 -21 7 0 21 -9 31 -20 16 -18 17 -24 5 -60
-28 -84 28 -132 120 -102 55 18 69 29 81 60 9 23 11 23 27 9 9 -8 38 -21 65
-27 61 -16 77 -4 77 55 0 35 -5 48 -26 64 -15 12 -33 21 -40 21 -23 0 -44 31
-44 64 0 49 -58 94 -95 74z"/>
<path d="M4660 3970 c-30 -30 -24 -58 17 -96 50 -46 68 -44 93 12 11 26 20 50
20 54 0 10 -76 50 -95 50 -8 0 -24 -9 -35 -20z"/>
<path d="M1185 3921 c-3 -5 5 -17 17 -25 41 -29 65 -15 32 18 -17 18 -40 21
-49 7z"/>
<path d="M6092 3901 c-8 -5 -12 -23 -10 -47 3 -37 5 -39 39 -42 42 -4 69 17
69 53 0 37 -62 60 -98 36z"/>
<path d="M6322 3878 c-8 -8 -9 -15 -1 -25 22 -26 74 -7 62 23 -6 17 -45 18
-61 2z"/>
<path d="M6315 3630 c-24 -27 -13 -50 26 -50 43 0 72 26 58 51 -13 25 -61 25
-84 -1z"/>
<path d="M583 3603 c-18 -7 -16 -64 3 -91 10 -15 25 -22 49 -22 41 0 44 4 37
53 -3 29 -11 41 -33 52 -29 16 -36 17 -56 8z"/>
<path d="M829 3594 c-9 -11 -10 -20 -2 -32 13 -21 53 -28 54 -10 5 50 -25 74
-52 42z"/>
<path d="M373 3574 c-16 -7 -16 -31 -2 -72 8 -23 18 -31 44 -36 49 -10 75 7
75 48 0 19 -6 38 -13 44 -15 13 -87 24 -104 16z"/>
<path d="M6430 3544 c-6 -14 -10 -32 -10 -39 0 -41 92 -37 98 4 8 54 -70 85
-88 35z"/>
<path d="M5762 3499 c2 -6 8 -10 13 -10 5 0 11 4 13 10 2 6 -4 11 -13 11 -9 0
-15 -5 -13 -11z"/>
<path d="M6988 3493 c-35 -5 -36 -21 -2 -33 29 -11 68 4 61 23 -4 14 -20 16
-59 10z"/>
<path d="M282 3420 c-17 -11 -45 -34 -62 -52 l-29 -33 -1 -428 c0 -339 3 -428
13 -423 6 2 31 10 54 16 49 14 123 74 123 99 0 10 -9 26 -20 36 -25 23 -25 35
-1 35 64 0 66 33 6 89 -24 22 -39 41 -32 41 7 0 24 -11 39 -25 36 -33 88 -35
88 -3 0 12 -12 35 -27 50 l-27 28 48 0 c26 0 56 4 66 10 22 12 74 101 63 109
-5 3 -16 18 -26 33 -9 15 -31 35 -48 43 -17 9 -28 22 -26 28 7 21 38 20 61 -2
28 -27 81 -38 101 -21 8 7 15 23 15 36 0 22 -4 24 -48 23 -27 -1 -58 2 -71 6
-12 4 -28 2 -35 -4 -10 -9 -21 -2 -47 31 -50 63 -68 100 -50 106 24 8 52 43
49 60 -2 10 -14 18 -30 20 -32 4 -50 23 -63 71 -13 43 -36 50 -83 21z m61
-159 c11 -10 -2 -41 -17 -41 -18 0 -36 22 -36 43 0 14 5 17 23 12 12 -4 26
-10 30 -14z m58 -141 c23 -13 25 -55 3 -64 -27 -10 -79 -7 -98 7 -27 20 -16
39 30 53 21 6 40 12 42 13 2 1 12 -4 23 -9z m142 -159 c12 -12 -41 -51 -69
-51 -63 0 -98 41 -51 60 24 11 106 5 120 -9z"/>
<path d="M6577 3418 c-19 -10 -23 -33 -7 -43 17 -11 50 5 50 25 0 22 -21 31
-43 18z"/>
<path d="M6798 3424 c-11 -10 3 -34 19 -34 8 0 13 7 11 17 -3 18 -20 27 -30
17z"/>
<path d="M490 3406 c-6 -8 -10 -25 -8 -38 4 -28 43 -36 72 -15 19 14 19 16 3
41 -19 29 -48 34 -67 12z"/>
<path d="M6316 3397 c-25 -18 -13 -55 21 -63 37 -10 60 17 45 51 -13 28 -38
32 -66 12z"/>
<path d="M6904 3336 c-3 -8 -4 -25 -2 -38 2 -17 9 -23 28 -23 31 0 39 34 15
59 -20 20 -34 20 -41 2z"/>
<path d="M6694 3309 c-3 -6 -1 -16 5 -22 8 -8 11 -5 11 11 0 24 -5 28 -16 11z"/>
<path d="M6442 3268 c4 -31 53 -34 53 -3 0 15 -8 21 -28 23 -25 3 -28 0 -25
-20z"/>
<path d="M6786 3214 c-21 -20 -20 -30 4 -54 39 -39 85 -16 61 29 -18 33 -47
44 -65 25z"/>
<path d="M7000 3212 c-22 -18 -23 -22 -12 -58 8 -27 22 -46 43 -58 31 -18 33
-18 46 -1 7 11 13 26 13 34 0 9 3 25 6 36 12 47 -55 80 -96 47z"/>
<path d="M515 3210 c-4 -6 -4 -10 -1 -10 2 0 11 -3 20 -6 9 -3 16 -2 16 4 0
14 -28 23 -35 12z"/>
<path d="M6570 3213 c-32 -11 -40 -34 -22 -62 9 -14 21 -29 26 -33 14 -9 43 8
57 33 9 17 7 25 -12 45 -24 25 -25 26 -49 17z"/>
<path d="M5890 3171 c-24 -12 -36 -26 -38 -45 -4 -33 15 -41 65 -29 42 10 53
35 33 72 -13 26 -17 26 -60 2z"/>
<path d="M6131 3101 c-15 -27 -14 -46 3 -60 12 -10 17 -8 26 9 13 25 10 62 -7
67 -6 2 -16 -5 -22 -16z"/>
<path d="M6666 3084 c-9 -8 -16 -18 -16 -22 1 -16 28 -42 44 -42 26 0 56 19
56 35 0 19 -28 45 -50 45 -10 0 -26 -7 -34 -16z"/>
<path d="M6853 3074 c-26 -12 -11 -40 53 -101 86 -83 113 -83 99 -2 -10 58
-50 99 -100 104 -22 3 -46 2 -52 -1z"/>
<path d="M6220 2940 c0 -11 7 -20 15 -20 8 0 15 9 15 20 0 11 -7 20 -15 20 -8
0 -15 -9 -15 -20z"/>
<path d="M6753 2944 c-8 -21 54 -84 84 -84 30 0 31 37 2 74 -23 30 -76 36 -86
10z"/>
<path d="M6153 2720 c0 -27 3 -40 12 -40 37 0 47 73 10 78 -17 2 -20 -4 -22
-38z"/>
<path d="M6574 2089 c-7 -12 12 -29 34 -29 19 0 14 18 -7 30 -14 7 -22 7 -27
-1z"/>
<path d="M7327 1533 c-17 -17 -5 -41 23 -46 34 -7 149 -83 157 -104 11 -28
-15 -39 -48 -19 -46 27 -61 5 -20 -30 35 -29 71 -92 71 -124 0 -13 -13 -28
-36 -42 -36 -21 -36 -22 -28 -67 5 -25 7 -75 6 -111 -1 -36 5 -96 14 -135 8
-38 18 -95 20 -125 3 -30 12 -66 19 -80 12 -22 14 32 15 403 0 400 -1 427 -17
427 -10 0 -49 14 -88 30 -75 32 -78 33 -88 23z"/>
<path d="M7238 1448 c-7 -42 -2 -55 23 -61 26 -7 33 11 21 54 -11 46 -38 50
-44 7z"/>
<path d="M7320 1331 c0 -5 9 -28 19 -51 22 -49 77 -83 88 -55 6 17 -22 65 -37
65 -6 0 -15 11 -20 25 -9 24 -50 37 -50 16z"/>
</g>
</svg>
